<svg xmlns="http://www.w3.org/2000/svg" xmlns:xlink="http://www.w3.org/1999/xlink" id="Laag_1" x="0px" y="0px" viewBox="0 0 769.89 73.22" style="enable-background:new 0 0 769.89 73.22;" xml:space="preserve"><style type="text/css">	.st0{fill:#FFFFFF;}</style><g>	<path class="st0" d="M199.9,34.94c10.88-0.73,16.32-7.85,16.32-16.21C216.22,6.9,205.13,0,187.56,0h-50.32v73.22h54.5  c17.57,0,28.66-7.11,28.66-20.08C220.4,41.53,211.41,35.57,199.9,34.94L199.9,34.94z M153.77,13.18h31.07  c9.1,0,14.75,1.57,14.75,8.26c0,6.8-5.65,8.26-14.75,8.26h-31.07V13.18L153.77,13.18z M188.29,60.04h-34.52V42.47h34.52  c9.41,0,14.96,1.36,14.96,8.79C203.25,58.58,197.7,60.04,188.29,60.04L188.29,60.04z M283.06,73.22V0h-16.74v73.22H283.06  L283.06,73.22z M406.6,0h-80.55v14.44h31.8v58.79h16.74V14.44h32.01V0L406.6,0z M649.7,73.22l-22.6-26.05  c12.13-2.82,20.4-10.56,20.4-23.01C647.5,8.26,634.01,0,616.12,0H565.6v73.22h16.63v-24.9h26.46l21.03,24.9H649.7L649.7,73.22z   M582.12,34.52v-20.5h33.05c8.79,0,15.27,2.09,15.27,10.25c0,8.16-6.49,10.25-15.27,10.25H582.12L582.12,34.52z M711.1,59.21V43.1  h48.22V29.08H711.1V14.02h57.74V0h-74.37v73.22h75.42V59.21H711.1L711.1,59.21z"></path>	<polygon class="st0" points="77.83,73.22 95.92,73.22 57.11,0 38.81,0 0,73.22 17.89,73.22 25.95,57.4 55.33,57.37 48.86,44.43   32.43,44.43 47.8,14.51 77.83,73.22  "></polygon>	<polygon class="st0" points="506.41,73.22 524.51,73.22 485.7,0 467.4,0 428.59,73.22 446.48,73.22 454.54,57.4 483.92,57.37   477.45,44.43 461.02,44.43 476.38,14.51 506.41,73.22  "></polygon></g></svg>